<?xml version="1.0" encoding="UTF-8"?>
<svg width="700pt" height="700pt" version="1.1" viewBox="0 0 700 700" xmlns="http://www.w3.org/2000/svg">
 <g>
  <path d="m314.01 244.06h-31.75c-7.2969 0-11.539 3.3438-13.812 6.1602-0.86719 1.0703-1.4922 2.3594-2.1211 3.6484h-12.387c-0.62891-1.2891-1.2539-2.5781-2.1211-3.6484-2.2891-2.8008-6.5352-6.1602-13.812-6.1602h-31.789c-3.8164 0-7.4844 2.0039-10.301 5.668-4.9727 6.4141-6.6367 16.496-4.2773 25.656 5.0742 19.668 16.902 22.605 23.535 22.605h19.684c7.5508 0 16.867-6.0078 20.449-22.859 0.73047-3.4102 0.96875-6.6016 0.93359-9.5859h7.7539c-0.035157 3.0039 0.20312 6.1758 0.93359 9.5859 3.5469 16.852 12.898 22.859 20.449 22.859h19.684c6.6367 0 18.496-2.9375 23.535-22.605 2.3594-9.1641 0.69531-19.262-4.2773-25.656-2.8242-3.6641-6.4922-5.668-10.309-5.668zm-70.137 28.66c-1.9531 9.3672-6.0586 13.609-9.0117 13.609h-19.684c-5.7695 0-9.875-4.6484-12.234-13.832-2.3594-9.1133 1.7305-16.188 3.2734-16.75h31.75c2.918 0 4.1055 1.0703 4.7695 1.8516 2.1367 2.6172 2.5625 8.418 1.1367 15.121zm73.41-0.23438c-2.3594 9.1797-6.4648 13.832-12.234 13.832h-19.684c-2.9531 0-7.0586-4.2422-9.043-13.609-1.3906-6.7031-0.96875-12.488 1.1523-15.137 0.66016-0.79687 1.8516-1.8516 4.7695-1.8516h31.582c1.7461 0.57422 5.8164 7.6328 3.457 16.766z"/>
  <path d="m360.74 210.8c-13.117-84.508-100.63-82.305-100.63-82.305s-87.531-2.2227-100.66 82.305c-13.082 84.492 2.8164 108.47-12.336 131.16 0 0 17.562 14.527 54.59 8.3672 14.645 18.344 34.176 31.223 58.395 31.223 24.215 0 43.715-12.879 58.395-31.223 36.992 6.1602 54.59-8.3672 54.59-8.3672-15.156-22.688 0.77734-46.648-12.34-131.16zm-24.367 75.398-5.1094 0.79688-1.4258 4.957c-9.7734 33.906-33.871 73.496-69.727 73.496s-59.988-39.59-69.727-73.496l-1.4297-4.957-5.1094-0.79688c-3.8867-0.57812-11.965-1.8164-13.184-20.074-0.55859-8.0938 1.3906-12.371 4.0039-14.867 0.33984 1.2227 0.66016 2.4766 1.0859 3.6992 2.4766 7.5508 5.4648 19.344 6.7891 6.9219 1.4258-13.168 12.523-23.961 45.973-32.176 33.414-8.1797 63.672-36.551 63.672-36.551s11.371 25.828 27.152 40.355c15.746 14.492 17.004 24.707 17.004 33.16 0 6.957 5.8359-2.375 9.3516-15.238 2.5469 2.5117 4.4141 6.7891 3.8516 14.695-1.2422 18.238-9.2891 19.496-13.172 20.074z"/>
  <path d="m161.77 470.48c2.7422-4.6484 8.8984-6.1016 13.75-3.2383 4.8516 2.8594 6.5625 8.9492 3.8203 13.598-2.7422 4.6523-8.8984 6.1016-13.75 3.2422-4.8516-2.8633-6.5625-8.9492-3.8203-13.602"/>
  <path d="m429.95 416.39c-3.9023-8.5195-19.855-17.766-37.824-25.914 0.066406 9.6914-0.76172 21.449-3.582 33.734 20.312 17.531 9.0117 48.109 1.2891 68.879-1.2227 3.2734-2.3945 6.3789-3.3789 9.3008-3.6836 10.828-8.8398 17.309-15.746 19.871-2.1562 0.78125-4.4141 1.1719-6.7539 1.1719-3.4453 0-7.1602-0.91797-11.168-2.5977-3.5469 1.7656-7.8906 1.9023-11.691-0.33984-5.8047-3.4297-7.8555-10.742-4.582-16.324 3.2734-5.5508 10.676-7.2812 16.512-3.8359 3.3789 1.9688 5.2773 5.2773 5.8047 8.7891 2.6484 1 5.3125 1.5625 7.332 0.81641 2.9531-1.0703 5.6016-5.0586 7.9258-11.793 1.0352-3.0195 2.2227-6.2266 3.4805-9.6055 9.7422-26.184 15.816-47.008-1.2891-57.102-17.141-10.113-32.445 5.293-50.672 26.473-2.3242 2.7148-4.582 5.3125-6.7031 7.6719-3.3086 3.6328-7.1289 8.7383-6.5352 12.59 0.33984 2.1367 2.0859 4.1914 4.2422 6.0234 3.3086-1.2383 7.1602-1.1523 10.539 0.84766 5.8047 3.4453 7.8555 10.758 4.582 16.309-3.3086 5.5664-10.707 7.3125-16.512 3.8672-3.7852-2.2227-5.7344-6.0742-5.9375-10.027-5.7695-4.582-9.043-9.5352-9.9102-15.07-1.0859-7.2969 2.1211-14.949 9.8086-23.367 2.0547-2.2734 4.207-4.8008 6.5-7.4336 14.457-16.801 35.789-41.457 60.957-32.156 2.3594-12.219 2.6133-23.691 2.2227-32.414-24.367-9.9453-48.094-17.141-48.094-17.141-15.152 38.656-70.629 75.684-70.629 75.684s-18.09 13.441-28.609 16.395c0 0 10.879-11.168 18.43-23.758-16.73-12.66-49.383-39.996-60.465-68.305 0 0-23.691 7.1953-48.059 17.121-0.73047 18.496 1.3906 49.516 20.211 72.988 5.7695-2.5781 12.797-2.3945 18.82 1.1875 9.6406 5.7188 13.066 17.867 7.5859 27.082-5.4648 9.2656-17.734 12.148-27.371 6.4297-9.1133-5.3633-12.559-16.375-8.3828-25.387-20.379-24.367-24.336-55.406-24.234-76.566-17.973 8.1445-33.871 17.41-37.824 25.914-10.051 21.848-11.75 104.25-11.75 124.43h363.25c0.003906-20.176-1.6758-102.58-11.789-124.44z"/>
  <path d="m612 117.73-20.16 8.5352c5.1406 12.184 7.7539 25.113 7.7539 38.488 0 54.539-44.344 98.898-98.867 98.898-54.523 0-98.867-44.359-98.867-98.898 0-48.82 35.602-89.414 82.203-97.355v0.42578 14.762c0 7.0938 5.0742 10.078 11.27 6.6523l14.117-7.8047c6.1953-3.4297 16.344-9.043 22.57-12.457l14.117-7.8047c6.1953-3.4102 6.1953-9.0273 0-12.457l-14.152-7.8047c-6.1953-3.4297-16.344-9.043-22.535-12.473l-14.117-7.8047c-6.1953-3.4648-11.266-0.46094-11.266 6.6328v14.781 3.1914c-58.73 8.1641-104.11 58.562-104.11 119.5 0 66.621 54.148 120.79 120.77 120.79 66.59 0 120.77-54.168 120.77-120.79 0.015625-16.293-3.1562-32.105-9.5039-47.008z"/>
  <path d="m542 107.33-37.691 33.516c-1.1523-0.16797-2.3594-0.35547-3.582-0.35547-13.391 0-24.266 10.859-24.266 24.285 0 13.371 10.879 24.25 24.266 24.25 13.391 0 24.266-10.879 24.266-24.25 0-1.2383-0.16797-2.4258-0.35547-3.5977l33.551-37.707c3.9375-4.4297 3.6992-11.473-0.47266-15.68-4.2109-4.2109-11.27-4.4141-15.715-0.46094z"/>
 </g>
</svg>
