<?xml version="1.0" encoding="UTF-8"?>
<svg width="700pt" height="700pt" version="1.1" viewBox="0 0 700 700" xmlns="http://www.w3.org/2000/svg">
 <path d="m350 46.668c-128.59 0-233.33 104.74-233.33 233.33s104.74 233.33 233.33 233.33 233.33-104.74 233.33-233.33-104.74-233.33-233.33-233.33zm0 93.332c6.1875 0 12.125 2.4609 16.5 6.8359s6.832 10.309 6.832 16.5c0 6.1875-2.457 12.121-6.832 16.496-4.375 4.3789-10.312 6.8359-16.5 6.8359s-12.125-2.457-16.5-6.8359c-4.375-4.375-6.832-10.309-6.832-16.496 0-6.1914 2.457-12.125 6.832-16.5s10.312-6.8359 16.5-6.8359zm0 70c6.1875 0 12.125 2.4609 16.5 6.8359s6.832 10.309 6.832 16.5v163.33c0 6.1875-2.457 12.125-6.832 16.5s-10.312 6.832-16.5 6.832-12.125-2.457-16.5-6.832-6.832-10.312-6.832-16.5v-163.33c0-6.1914 2.457-12.125 6.832-16.5s10.312-6.8359 16.5-6.8359z"/>
</svg>
