<?xml version="1.0" encoding="UTF-8"?>
<svg width="700pt" height="700pt" version="1.1" viewBox="0 0 700 700" xmlns="http://www.w3.org/2000/svg">
 <g>
  <path d="m355.36 238.49c1.2539-2.8516 2.1562-5.6836 2.3594-8.6719 0.39062-6.957 4.9023-76.008-27.609-77.145-19.227-20.637-70.035-38.52-129.29-7.3984-44.547 23.383-38.777 76.871-38.352 84.527 0.20312 2.9883 1.0859 5.8203 2.3594 8.6719-5.9375 5.0078-11.301 13.676-10.266 28.695 1.4922 21.926 11.691 30.598 21.672 33.734 12.59 39.812 40.727 80.621 83.848 80.621 43.152 0 71.289-40.812 83.883-80.621 9.9766-3.1562 20.176-11.812 21.672-33.719 1.0273-15.02-4.3359-23.688-10.273-28.695zm-5.8203 27.625c-1.2227 18.227-9.3164 19.465-13.184 20.074l-5.1094 0.79688-1.4258 4.957c-9.7422 33.887-33.871 73.48-69.727 73.48-35.855 0-59.953-39.59-69.695-73.48l-1.4453-4.9531-5.1406-0.79688c-3.8516-0.59375-11.93-1.832-13.152-20.094-0.39062-5.7344 0.49219-9.5195 1.9531-12.168 1.1523 2.5625 2.2578 5.2617 3.1562 8.2461 4.1055 14.035 10.148 7.4336 10.148 7.4336-3.4102-32.156 23.402-74.414 23.402-74.414s8.2812 3.9219 23.199 6.5859c-7.7227 2.6797-13.391 4.9023-13.762 5.8555-1.2891 3.207 52.996 5.9062 91.008-11.93 0.69531-0.30469 1.1211-0.49219 1.1211-0.49219s26.812 42.254 23.402 74.414c0 0 6.0234 6.6172 10.148-7.4336 0.86719-3.0039 1.9844-5.6836 3.1562-8.2461 1.4336 2.6445 2.3359 6.4141 1.9453 12.164z"/>
  <path d="m326.7 243.01c-2.9531-3.8164-6.7188-5.8867-10.707-5.8867h-32.938c-7.5508 0-11.965 3.4805-14.324 6.3984-0.89844 1.0859-1.5625 2.4453-2.2227 3.7852h-12.863c-0.62891-1.3398-1.2891-2.6641-2.1875-3.7852-2.3594-2.9023-6.7539-6.3984-14.355-6.3984l-32.906-0.003906c-3.9727 0-7.7891 2.0703-10.707 5.8867-5.1758 6.6523-6.8906 17.105-4.4453 26.609 5.2422 20.398 17.531 23.453 24.402 23.453h20.414c7.8555 0 17.531-6.2266 21.246-23.691 0.76172-3.5625 1-6.8398 1-9.9766h7.9922c0 3.1406 0.23828 6.4141 1 9.9766 3.7148 17.461 13.391 23.691 21.246 23.691h20.379c6.8906 0 19.191-3.0547 24.418-23.453 2.4492-9.5 0.70312-19.973-4.4414-26.605zm-83.422 23.859c-2.0547 9.6719-6.3281 14.102-9.418 14.102h-20.414c-5.9727 0-10.215-4.8359-12.66-14.375-2.4609-9.4688 1.7812-16.781 3.4102-17.359h32.902c3.0547 0 4.2773 1.0859 4.9727 1.9023 2.207 2.7305 2.668 8.7539 1.207 15.73zm76.125-0.27344c-2.4609 9.5352-6.7188 14.375-12.691 14.375h-20.379c-3.1211 0-7.3633-4.4297-9.418-14.102-1.4609-6.9727-1-13 1.1875-15.73 0.69531-0.81641 1.918-1.9023 4.9375-1.9023l32.785-0.035156c1.7969 0.61328 6.0391 7.9258 3.5781 17.395z"/>
  <path d="m161.76 470.47c2.7461-4.6484 8.8945-6.0977 13.738-3.2383 4.8398 2.8594 6.5391 8.9453 3.793 13.594-2.7461 4.6484-8.8945 6.0977-13.738 3.2383-4.8398-2.8594-6.5391-8.9453-3.793-13.594"/>
  <path d="m429.95 416.39c-3.9023-8.5195-19.855-17.766-37.824-25.914 0.035156 9.6914-0.76172 21.449-3.6133 33.734 20.348 17.531 9.043 48.109 1.2891 68.879-1.1875 3.2734-2.3594 6.3789-3.3438 9.3008-3.7148 10.828-8.8398 17.309-15.781 19.871-2.1211 0.78125-4.3789 1.1719-6.7188 1.1719-3.4453 0-7.1953-0.91797-11.199-2.5977-3.5469 1.7656-7.8906 1.9023-11.676-0.33984-5.8359-3.4297-7.8906-10.742-4.5977-16.324 3.3086-5.5508 10.676-7.2812 16.512-3.8359 3.3789 1.9688 5.3125 5.2773 5.8359 8.7891 2.6484 1 5.3125 1.5625 7.332 0.81641 2.9531-1.0703 5.6016-5.0586 7.8906-11.793 1.0352-3.0195 2.2578-6.2266 3.5117-9.6055 9.707-26.184 15.816-47.008-1.3242-57.102-17.105-10.113-32.414 5.293-50.637 26.473-2.3594 2.7148-4.582 5.3125-6.7188 7.6719-3.2734 3.6328-7.0938 8.7578-6.5352 12.59 0.33984 2.1367 2.0859 4.1914 4.2422 6.0234 3.3438-1.2383 7.1602-1.1523 10.539 0.84766 5.8359 3.4453 7.8555 10.758 4.582 16.309-3.2734 5.5664-10.676 7.3125-16.477 3.8672-3.7852-2.2227-5.7695-6.0742-5.9375-10.027-5.7695-4.582-9.0781-9.5352-9.9102-15.07-1.0859-7.2969 2.1211-14.949 9.7734-23.367 2.0859-2.2734 4.2422-4.8008 6.5-7.4336 14.492-16.801 35.789-41.457 60.957-32.156 2.3945-12.219 2.6133-23.691 2.2578-32.414-24.367-9.9453-48.125-17.141-48.125-17.141-15.121 38.656-70.629 75.684-70.629 75.684s-18.055 13.441-28.578 16.395c0 0 10.844-11.168 18.395-23.758-16.73-12.66-49.348-39.996-60.465-68.305 0 0-23.691 7.1953-48.023 17.121-0.73047 18.496 1.3906 49.516 20.176 72.988 5.7695-2.5781 12.797-2.3945 18.852 1.1875 9.6406 5.7188 13.031 17.867 7.5859 27.082-5.5 9.2656-17.766 12.148-27.406 6.4297-9.0781-5.3633-12.523-16.375-8.3828-25.387-20.348-24.367-24.301-55.406-24.199-76.566-17.973 8.1445-33.906 17.41-37.824 25.914-10.102 21.848-11.766 104.25-11.766 124.43h363.22c0-20.176-1.6797-102.58-11.758-124.44z"/>
  <path d="m612 117.73-20.18 8.5391c5.1758 12.184 7.7891 25.113 7.7891 38.488 0 54.539-44.344 98.898-98.898 98.898-54.523 0-98.867-44.359-98.867-98.898 0-48.82 35.637-89.414 82.234-97.355v0.42578 14.762c0 7.0938 5.0742 10.078 11.27 6.6523l14.117-7.8047c6.1953-3.4297 16.344-9.043 22.535-12.457l14.117-7.8047c6.1953-3.4102 6.1953-9.0273 0-12.457l-14.117-7.8047c-6.1953-3.4297-16.344-9.043-22.535-12.473l-14.117-7.8047c-6.2109-3.4688-11.281-0.46484-11.281 6.6289v14.781 3.1914c-58.73 8.1641-104.14 58.562-104.14 119.5 0 66.621 54.184 120.79 120.77 120.79 66.621 0 120.81-54.168 120.81-120.79 0.015625-16.293-3.1914-32.105-9.5039-47.008z"/>
  <path d="m541.98 107.33-37.656 33.516c-1.1875-0.16797-2.3594-0.35547-3.582-0.35547-13.422 0-24.301 10.859-24.301 24.285 0 13.371 10.879 24.25 24.301 24.25 13.391 0 24.266-10.879 24.266-24.25 0-1.2383-0.20312-2.4258-0.35547-3.5977l33.516-37.707c3.9375-4.4297 3.75-11.473-0.45703-15.68-4.207-4.2109-11.301-4.4141-15.73-0.46094z"/>
 </g>
</svg>
